<svg width="23" height="27" viewBox="0 0 23 27" fill="none" xmlns="http://www.w3.org/2000/svg">
<path d="M20.4448 15.2528V10.6706C20.4448 6.55995 17.6528 3.09712 13.8705 2.05571C13.4961 1.1127 12.5812 0.448242 11.5002 0.448242C10.4192 0.448242 9.50426 1.1127 9.12986 2.05571C5.34758 3.09839 2.5556 6.55995 2.5556 10.6706V15.2528L0.374396 17.434C0.255506 17.5525 0.161221 17.6933 0.0969661 17.8483C0.0327118 18.0034 -0.000242077 18.1696 1.33871e-06 18.3374V20.893C1.33871e-06 21.2319 0.134626 21.5569 0.374259 21.7965C0.613893 22.0362 0.938906 22.1708 1.2778 22.1708H21.7226C22.0614 22.1708 22.3865 22.0362 22.6261 21.7965C22.8657 21.5569 23.0004 21.2319 23.0004 20.893V18.3374C23.0006 18.1696 22.9676 18.0034 22.9034 17.8483C22.8391 17.6933 22.7448 17.5525 22.626 17.434L20.4448 15.2528ZM20.4448 19.6152H2.5556V18.8664L4.7368 16.6852C4.85568 16.5668 4.94997 16.426 5.01423 16.2709C5.07848 16.1159 5.11143 15.9496 5.11119 15.7818V10.6706C5.11119 7.14773 7.97729 4.28163 11.5002 4.28163C15.0231 4.28163 17.8892 7.14773 17.8892 10.6706V15.7818C17.8892 16.1217 18.0233 16.4463 18.2636 16.6852L20.4448 18.8664V19.6152ZM11.5002 26.0042C12.2915 26.0052 13.0635 25.7596 13.7088 25.3016C14.3542 24.8436 14.8408 24.1959 15.101 23.4486H7.89934C8.15958 24.1959 8.64619 24.8436 9.29152 25.3016C9.93685 25.7596 10.7088 26.0052 11.5002 26.0042Z" fill="white"/>
</svg>
