<svg width="25" height="16" viewBox="0 0 25 16" fill="none" xmlns="http://www.w3.org/2000/svg">
<path d="M12.5 10.9375C13.3288 10.9375 14.1237 10.6083 14.7097 10.0222C15.2958 9.43616 15.625 8.6413 15.625 7.8125C15.625 6.9837 15.2958 6.18884 14.7097 5.60279C14.1237 5.01674 13.3288 4.6875 12.5 4.6875C11.6712 4.6875 10.8763 5.01674 10.2903 5.60279C9.70424 6.18884 9.375 6.9837 9.375 7.8125C9.375 8.6413 9.70424 9.43616 10.2903 10.0222C10.8763 10.6083 11.6712 10.9375 12.5 10.9375V10.9375Z" fill="white"/>
<path d="M0 1.5625C0 1.1481 0.16462 0.750671 0.457646 0.457646C0.750671 0.16462 1.1481 0 1.5625 0H23.4375C23.8519 0 24.2493 0.16462 24.5424 0.457646C24.8354 0.750671 25 1.1481 25 1.5625V14.0625C25 14.4769 24.8354 14.8743 24.5424 15.1674C24.2493 15.4604 23.8519 15.625 23.4375 15.625H1.5625C1.1481 15.625 0.750671 15.4604 0.457646 15.1674C0.16462 14.8743 0 14.4769 0 14.0625V1.5625ZM4.6875 1.5625C4.6875 2.3913 4.35826 3.18616 3.77221 3.77221C3.18616 4.35826 2.3913 4.6875 1.5625 4.6875V10.9375C2.3913 10.9375 3.18616 11.2667 3.77221 11.8528C4.35826 12.4388 4.6875 13.2337 4.6875 14.0625H20.3125C20.3125 13.2337 20.6417 12.4388 21.2278 11.8528C21.8138 11.2667 22.6087 10.9375 23.4375 10.9375V4.6875C22.6087 4.6875 21.8138 4.35826 21.2278 3.77221C20.6417 3.18616 20.3125 2.3913 20.3125 1.5625H4.6875Z" fill="white"/>
</svg>
