<svg width="26" height="26" viewBox="0 0 26 26" fill="none" xmlns="http://www.w3.org/2000/svg">
<path d="M18.5355 4.94998L21.3431 7.74629L18.5355 4.94998ZM20.341 2.48654L12.7494 10.0512C12.3571 10.4415 12.0896 10.9388 11.9805 11.4804L11.2793 14.9781L14.7894 14.278C15.3329 14.1697 15.8313 13.9042 16.2237 13.5133L23.8153 5.94857C24.0434 5.72125 24.2244 5.45138 24.3478 5.15437C24.4713 4.85737 24.5349 4.53903 24.5349 4.21756C24.5349 3.89608 24.4713 3.57774 24.3478 3.28074C24.2244 2.98373 24.0434 2.71386 23.8153 2.48654C23.5872 2.25922 23.3163 2.0789 23.0183 1.95588C22.7202 1.83285 22.4007 1.76953 22.0781 1.76953C21.7555 1.76953 21.436 1.83285 21.138 1.95588C20.8399 2.0789 20.5691 2.25922 20.341 2.48654V2.48654Z" stroke="#F3F3F3" stroke-width="2.65116" stroke-linecap="round" stroke-linejoin="round"/>
<path d="M21.8837 17.6199V21.5826C21.8837 22.2832 21.6044 22.9552 21.1072 23.4506C20.61 23.946 19.9357 24.2243 19.2326 24.2243H4.65116C3.94803 24.2243 3.2737 23.946 2.77651 23.4506C2.27932 22.9552 2 22.2832 2 21.5826V7.05289C2 6.35226 2.27932 5.68031 2.77651 5.18489C3.2737 4.68946 3.94803 4.41113 4.65116 4.41113H8.62791" stroke="#F3F3F3" stroke-width="2.65116" stroke-linecap="round" stroke-linejoin="round"/>
</svg>
