<svg width="34" height="27" viewBox="0 0 34 27" fill="none" xmlns="http://www.w3.org/2000/svg">
<path d="M33.9325 13.0827C32.5995 9.34893 30.2853 6.11994 27.276 3.79483C24.2667 1.46973 20.6942 0.15043 17 0C13.3058 0.15043 9.7333 1.46973 6.724 3.79483C3.71471 6.11994 1.40054 9.34893 0.0675198 13.0827C-0.0225066 13.3524 -0.0225066 13.6476 0.0675198 13.9173C1.40054 17.6511 3.71471 20.8801 6.724 23.2052C9.7333 25.5303 13.3058 26.8496 17 27C20.6942 26.8496 24.2667 25.5303 27.276 23.2052C30.2853 20.8801 32.5995 17.6511 33.9325 13.9173C34.0225 13.6476 34.0225 13.3524 33.9325 13.0827ZM17 24.5455C10.9932 24.5455 4.64632 19.7223 2.34558 13.5C4.64632 7.27773 10.9932 2.45455 17 2.45455C23.0068 2.45455 29.3537 7.27773 31.6544 13.5C29.3537 19.7223 23.0068 24.5455 17 24.5455Z" fill="white"/>
<path d="M16.9999 6.13647C15.655 6.13647 14.3402 6.56834 13.2219 7.37747C12.1036 8.1866 11.232 9.33664 10.7173 10.6822C10.2027 12.0277 10.068 13.5083 10.3304 14.9367C10.5928 16.3651 11.2404 17.6772 12.1914 18.707C13.1425 19.7368 14.3541 20.4381 15.6733 20.7223C16.9924 21.0064 18.3596 20.8606 19.6022 20.3032C20.8448 19.7459 21.9068 18.8021 22.6541 17.5911C23.4013 16.3802 23.8001 14.9565 23.8001 13.5001C23.8001 11.5472 23.0836 9.67418 21.8084 8.29323C20.5331 6.91228 18.8034 6.13647 16.9999 6.13647ZM16.9999 18.4092C16.1033 18.4092 15.2268 18.1213 14.4812 17.5819C13.7357 17.0425 13.1547 16.2758 12.8115 15.3787C12.4684 14.4817 12.3786 13.4947 12.5535 12.5424C12.7285 11.5901 13.1602 10.7154 13.7943 10.0289C14.4283 9.34231 15.2361 8.87476 16.1155 8.68535C16.9949 8.49593 17.9064 8.59314 18.7348 8.9647C19.5632 9.33626 20.2712 9.96547 20.7693 10.7728C21.2675 11.5801 21.5334 12.5292 21.5334 13.5001C21.5334 14.8021 21.0557 16.0507 20.2055 16.9714C19.3554 17.892 18.2023 18.4092 16.9999 18.4092Z" fill="white"/>
</svg>
