<svg width="85" height="98" viewBox="0 0 85 98" fill="none" xmlns="http://www.w3.org/2000/svg">
<g filter="url(#filter0_d_3_55)">
<path d="M40.5535 69C40.2999 68.9997 40.0483 68.9554 39.8099 68.8691C39.35 68.7011 38.96 68.3841 38.7023 67.9687C38.4445 67.5533 38.3339 67.0637 38.3883 66.5782L40.0723 51.1092H27.1904C26.7931 51.1098 26.4031 51.0024 26.0623 50.7985C25.7216 50.5947 25.4429 50.3021 25.2563 49.9522C25.0697 49.6022 24.9821 49.2082 25.003 48.8124C25.024 48.4166 25.1526 48.0339 25.3751 47.7055L42.6312 21.9602C42.9041 21.5573 43.3042 21.2569 43.7678 21.1067C44.2314 20.9565 44.732 20.9651 45.1901 21.1311C45.6306 21.2942 46.0066 21.5945 46.2627 21.9875C46.5187 22.3804 46.6411 22.8452 46.6117 23.3129L44.9277 38.891H57.8096C58.2069 38.8904 58.5969 38.9978 58.9377 39.2017C59.2784 39.4055 59.5571 39.6981 59.7437 40.048C59.9304 40.398 60.0179 40.792 59.997 41.1878C59.976 41.5836 59.8474 41.9663 59.6249 42.2947L42.3688 68.04C42.1682 68.3361 41.8977 68.5785 41.5812 68.7459C41.2646 68.9133 40.9117 69.0005 40.5535 69ZM31.2802 46.7456H42.5C42.8052 46.7463 43.1069 46.8107 43.3856 46.9347C43.6643 47.0587 43.914 47.2395 44.1184 47.4655C44.3248 47.6946 44.4803 47.9647 44.5745 48.258C44.6687 48.5514 44.6997 48.8613 44.6652 49.1674L43.681 58.2219L53.7198 43.2547H42.5C42.1914 43.2565 41.8858 43.1932 41.6035 43.0689C41.3212 42.9445 41.0684 42.762 40.8618 42.5332C40.6552 42.3045 40.4995 42.0347 40.4049 41.7417C40.3103 41.4486 40.279 41.1389 40.3129 40.8328L41.2971 31.7783L31.2802 46.7456Z" fill="#643AD9"/>
</g>
<defs>
<filter id="filter0_d_3_55" x="0" y="0" width="85" height="98" filterUnits="userSpaceOnUse" color-interpolation-filters="sRGB">
<feFlood flood-opacity="0" result="BackgroundImageFix"/>
<feColorMatrix in="SourceAlpha" type="matrix" values="0 0 0 0 0 0 0 0 0 0 0 0 0 0 0 0 0 0 127 0" result="hardAlpha"/>
<feOffset dy="4"/>
<feGaussianBlur stdDeviation="12.5"/>
<feComposite in2="hardAlpha" operator="out"/>
<feColorMatrix type="matrix" values="0 0 0 0 0.392157 0 0 0 0 0.227451 0 0 0 0 0.85098 0 0 0 0.54 0"/>
<feBlend mode="normal" in2="BackgroundImageFix" result="effect1_dropShadow_3_55"/>
<feBlend mode="normal" in="SourceGraphic" in2="effect1_dropShadow_3_55" result="shape"/>
</filter>
</defs>
</svg>
