<svg width="30" height="30" viewBox="0 0 30 30" fill="none" xmlns="http://www.w3.org/2000/svg">
<path d="M16.4967 21.0018H7.49852C7.10078 21.0018 6.71932 21.1598 6.43807 21.441C6.15682 21.7223 5.99882 22.1037 5.99882 22.5015C5.99882 22.8992 6.15682 23.2807 6.43807 23.5619C6.71932 23.8432 7.10078 24.0012 7.49852 24.0012H16.4967C16.8945 24.0012 17.2759 23.8432 17.5572 23.5619C17.8384 23.2807 17.9964 22.8992 17.9964 22.5015C17.9964 22.1037 17.8384 21.7223 17.5572 21.441C17.2759 21.1598 16.8945 21.0018 16.4967 21.0018ZM10.4979 12.0036H13.4973C13.8951 12.0036 14.2765 11.8456 14.5578 11.5643C14.839 11.2831 14.997 10.9016 14.997 10.5039C14.997 10.1061 14.839 9.72467 14.5578 9.44343C14.2765 9.16218 13.8951 9.00417 13.4973 9.00417H10.4979C10.1002 9.00417 9.71873 9.16218 9.43748 9.44343C9.15623 9.72467 8.99822 10.1061 8.99822 10.5039C8.99822 10.9016 9.15623 11.2831 9.43748 11.5643C9.71873 11.8456 10.1002 12.0036 10.4979 12.0036ZM28.4943 15.003H23.9952V1.50566C23.9963 1.2414 23.9275 0.981552 23.7958 0.752431C23.6641 0.52331 23.4743 0.333052 23.2454 0.200922C23.0174 0.0692957 22.7588 0 22.4955 0C22.2323 0 21.9737 0.0692957 21.7457 0.200922L17.2466 2.78041L12.7475 0.200922C12.5195 0.0692957 12.2609 0 11.9976 0C11.7344 0 11.4758 0.0692957 11.2478 0.200922L6.74867 2.78041L2.24956 0.200922C2.02158 0.0692957 1.76297 0 1.49971 0C1.23646 0 0.977846 0.0692957 0.749863 0.200922C0.521002 0.333052 0.331118 0.52331 0.199439 0.752431C0.0677607 0.981552 -0.00103732 1.2414 1.1822e-05 1.50566V25.5009C1.1822e-05 26.6941 0.474024 27.8385 1.31777 28.6822C2.16152 29.526 3.30588 30 4.49912 30H25.4949C26.6882 30 27.8325 29.526 28.6763 28.6822C29.52 27.8385 29.9941 26.6941 29.9941 25.5009V16.5027C29.9941 16.1049 29.836 15.7235 29.5548 15.4422C29.2736 15.161 28.8921 15.003 28.4943 15.003ZM4.49912 27.0006C4.10137 27.0006 3.71992 26.8426 3.43867 26.5613C3.15742 26.2801 2.99942 25.8986 2.99942 25.5009V4.10015L5.99882 5.80981C6.23028 5.9307 6.48754 5.99384 6.74867 5.99384C7.0098 5.99384 7.26706 5.9307 7.49852 5.80981L11.9976 3.23032L16.4967 5.80981C16.7282 5.9307 16.9855 5.99384 17.2466 5.99384C17.5077 5.99384 17.765 5.9307 17.9964 5.80981L20.9958 4.10015V25.5009C20.9999 26.0125 21.0912 26.5197 21.2658 27.0006H4.49912ZM26.9946 25.5009C26.9946 25.8986 26.8366 26.2801 26.5554 26.5613C26.2741 26.8426 25.8927 27.0006 25.4949 27.0006C25.0972 27.0006 24.7157 26.8426 24.4345 26.5613C24.1532 26.2801 23.9952 25.8986 23.9952 25.5009V18.0024H26.9946V25.5009ZM16.4967 15.003H7.49852C7.10078 15.003 6.71932 15.161 6.43807 15.4422C6.15682 15.7235 5.99882 16.1049 5.99882 16.5027C5.99882 16.9004 6.15682 17.2819 6.43807 17.5631C6.71932 17.8444 7.10078 18.0024 7.49852 18.0024H16.4967C16.8945 18.0024 17.2759 17.8444 17.5572 17.5631C17.8384 17.2819 17.9964 16.9004 17.9964 16.5027C17.9964 16.1049 17.8384 15.7235 17.5572 15.4422C17.2759 15.161 16.8945 15.003 16.4967 15.003Z" fill="white"/>
</svg>
