<svg width="28" height="20" viewBox="0 0 28 20" fill="none" xmlns="http://www.w3.org/2000/svg">
<path d="M23.3326 2.29537C20.7996 1.03075 17.4508 0.355469 13.6391 0.355469C9.82746 0.355469 6.47858 1.03075 3.9456 2.29537C1.41262 3.55998 0 5.36482 0 7.23105V13.1244C0 14.9906 1.43698 16.7955 3.9456 18.0601C6.45422 19.3247 9.82746 20 13.6391 20C17.4508 20 20.7996 19.3247 23.3326 18.0601C25.8656 16.7955 27.2782 14.9906 27.2782 13.1244V7.23105C27.2782 5.36482 25.8412 3.55998 23.3326 2.29537ZM13.6391 2.31992C21.2624 2.31992 25.3298 5.16838 25.3298 7.23105C25.3298 8.44656 23.905 9.95673 21.1406 10.9758H21.1041C19.2165 11.6634 16.7201 12.1299 13.6391 12.1299C10.5581 12.1299 8.06169 11.6634 6.17413 10.9758H6.1376C3.37324 9.95673 1.94844 8.44656 1.94844 7.23105C1.94844 5.16838 6.01582 2.31992 13.6391 2.31992ZM12.6649 14.0944V18.0233C10.3511 17.9373 8.40266 17.5935 6.81955 17.1024V13.2472C8.56098 13.7383 10.5338 14.0207 12.6649 14.0944ZM14.6133 14.0944C16.7444 14.0207 18.7172 13.7383 20.4587 13.2472V17.1024C18.8756 17.5935 16.9271 17.9373 14.6133 18.0233V14.0944ZM1.94844 13.1244V10.853C2.56142 11.3675 3.23163 11.8083 3.9456 12.1667L4.87111 12.5842V16.3167C2.94702 15.359 1.94844 14.1435 1.94844 13.1244ZM22.4071 16.3167V12.5842L23.3326 12.1667C24.0466 11.8083 24.7168 11.3675 25.3298 10.853V13.1244C25.3298 14.1435 24.3312 15.359 22.4071 16.3167Z" fill="#643AD9"/>
</svg>
