<svg width="19" height="18" viewBox="0 0 19 18" fill="none" xmlns="http://www.w3.org/2000/svg">
<path d="M16.931 6.42847C16.7023 6.42849 16.4759 6.47435 16.2653 6.56335C16.0546 6.65234 15.8639 6.78266 15.7044 6.9466L15.4518 7.20696L15.1966 6.9466C15.0371 6.78269 14.8464 6.65241 14.6357 6.56345C14.425 6.47448 14.1987 6.42865 13.97 6.42865C13.7413 6.42865 13.5149 6.47448 13.3042 6.56345C13.0935 6.65241 12.9028 6.78269 12.7434 6.9466C12.4182 7.28236 12.2363 7.73145 12.2363 8.19887C12.2363 8.6663 12.4182 9.11539 12.7434 9.45115L15.4518 12.2141L18.1576 9.45115C18.4828 9.11539 18.6647 8.6663 18.6647 8.19887C18.6647 7.73145 18.4828 7.28236 18.1576 6.9466C17.9982 6.78266 17.8075 6.65234 17.5968 6.56335C17.3861 6.47435 17.1597 6.42849 16.931 6.42847V6.42847Z" fill="#643AD9"/>
<path d="M0.665039 17.9998H1.95078V14.7856C1.9518 13.9334 2.29078 13.1165 2.89337 12.5139C3.49596 11.9113 4.31295 11.5724 5.16513 11.5713H9.02236C9.87454 11.5724 10.6915 11.9113 11.2941 12.5139C11.8967 13.1165 12.2357 13.9334 12.2367 14.7856V17.9998H13.5224V14.7856C13.5211 13.5926 13.0465 12.4488 12.2029 11.6052C11.3593 10.7615 10.2154 10.287 9.02236 10.2856H5.16513C3.97205 10.287 2.82823 10.7615 1.98459 11.6052C1.14095 12.4488 0.6664 13.5926 0.665039 14.7856V17.9998Z" fill="#643AD9"/>
<path d="M7.09385 1.2857C7.72958 1.2857 8.35105 1.47421 8.87964 1.8274C9.40824 2.18058 9.82023 2.68258 10.0635 3.26991C10.3068 3.85724 10.3705 4.50351 10.2464 5.12702C10.1224 5.75052 9.81627 6.32325 9.36674 6.77277C8.9172 7.22229 8.34446 7.52842 7.72093 7.65244C7.09741 7.77646 6.45111 7.71281 5.86377 7.46953C5.27642 7.22625 4.77441 6.81427 4.42121 6.28569C4.06801 5.75711 3.87949 5.13567 3.87949 4.49995C3.87949 3.64748 4.21815 2.82992 4.82096 2.22713C5.42376 1.62434 6.24135 1.2857 7.09385 1.2857V1.2857ZM7.09385 0C6.20381 0 5.33376 0.263917 4.59373 0.758378C3.85369 1.25284 3.2769 1.95563 2.9363 2.77789C2.5957 3.60015 2.50658 4.50494 2.68022 5.37785C2.85386 6.25075 3.28245 7.05256 3.9118 7.68189C4.54115 8.31122 5.34299 8.7398 6.21592 8.91343C7.08885 9.08706 7.99367 8.99795 8.81596 8.65736C9.63824 8.31677 10.3411 7.74 10.8355 6.99999C11.33 6.25997 11.5939 5.38995 11.5939 4.49995C11.5939 3.30649 11.1198 2.16191 10.2759 1.318C9.43196 0.4741 8.28735 0 7.09385 0V0Z" fill="#643AD9"/>
</svg>
