<svg width="27" height="20" viewBox="0 0 27 20" fill="none" xmlns="http://www.w3.org/2000/svg">
<path d="M26.6134 9.76692C25.594 7.02154 23.8244 4.64732 21.5232 2.93772C19.2219 1.22812 16.49 0.258069 13.665 0.147461C10.8401 0.258069 8.10815 1.22812 5.80692 2.93772C3.5057 4.64732 1.73604 7.02154 0.716672 9.76692C0.647828 9.96518 0.647828 10.1823 0.716672 10.3805C1.73604 13.1259 3.5057 15.5001 5.80692 17.2097C8.10815 18.9193 10.8401 19.8894 13.665 20C16.49 19.8894 19.2219 18.9193 21.5232 17.2097C23.8244 15.5001 25.594 13.1259 26.6134 10.3805C26.6823 10.1823 26.6823 9.96518 26.6134 9.76692V9.76692ZM13.665 18.1952C9.07158 18.1952 4.2181 14.6488 2.45872 10.0737C4.2181 5.49862 9.07158 1.95224 13.665 1.95224C18.2585 1.95224 23.112 5.49862 24.8714 10.0737C23.112 14.6488 18.2585 18.1952 13.665 18.1952Z" fill="#643AD9"/>
<path d="M13.665 4.65942C12.6365 4.65942 11.6311 4.97697 10.7759 5.5719C9.92079 6.16684 9.25427 7.01244 8.86068 8.00178C8.4671 8.99112 8.36412 10.0798 8.56477 11.13C8.76541 12.1803 9.26068 13.1451 9.98793 13.9023C10.7152 14.6595 11.6418 15.1751 12.6505 15.384C13.6592 15.593 14.7048 15.4857 15.655 15.0759C16.6052 14.6661 17.4174 13.9722 17.9888 13.0818C18.5602 12.1914 18.8651 11.1446 18.8651 10.0738C18.8651 8.63778 18.3173 7.26063 17.3421 6.24524C16.3668 5.22986 15.0442 4.65942 13.665 4.65942ZM13.665 13.6833C12.9793 13.6833 12.3091 13.4716 11.739 13.075C11.1689 12.6784 10.7245 12.1146 10.4621 11.4551C10.1997 10.7955 10.1311 10.0697 10.2648 9.36956C10.3986 8.66938 10.7288 8.02622 11.2136 7.52141C11.6985 7.01661 12.3162 6.67283 12.9887 6.53356C13.6611 6.39428 14.3582 6.46576 14.9917 6.73896C15.6251 7.01216 16.1666 7.47481 16.5475 8.06839C16.9284 8.66198 17.1318 9.35985 17.1318 10.0738C17.1318 11.0311 16.7665 11.9492 16.1164 12.6261C15.4662 13.303 14.5844 13.6833 13.665 13.6833Z" fill="#643AD9"/>
</svg>
