<svg width="26" height="17" viewBox="0 0 26 17" fill="none" xmlns="http://www.w3.org/2000/svg">
<path d="M13.0781 12.0768C13.9069 12.0768 14.7018 11.731 15.2878 11.1155C15.8739 10.5001 16.2031 9.6653 16.2031 8.79487C16.2031 7.92445 15.8739 7.08968 15.2878 6.4742C14.7018 5.85871 13.9069 5.51294 13.0781 5.51294C12.2493 5.51294 11.4545 5.85871 10.8684 6.4742C10.2824 7.08968 9.95313 7.92445 9.95312 8.79487C9.95313 9.6653 10.2824 10.5001 10.8684 11.1155C11.4545 11.731 12.2493 12.0768 13.0781 12.0768V12.0768Z" fill="#ffffff"/>
<path d="M0.578125 2.2313C0.578125 1.79609 0.742745 1.3787 1.03577 1.07096C1.3288 0.763219 1.72622 0.590332 2.14062 0.590332H24.0156C24.43 0.590332 24.8275 0.763219 25.1205 1.07096C25.4135 1.3787 25.5781 1.79609 25.5781 2.2313V15.359C25.5781 15.7942 25.4135 16.2116 25.1205 16.5194C24.8275 16.8271 24.43 17 24.0156 17H2.14062C1.72622 17 1.3288 16.8271 1.03577 16.5194C0.742745 16.2116 0.578125 15.7942 0.578125 15.359V2.2313ZM5.26562 2.2313C5.26562 3.10172 4.93639 3.93649 4.35033 4.55198C3.76428 5.16746 2.96943 5.51323 2.14062 5.51323V12.0771C2.96943 12.0771 3.76428 12.4229 4.35033 13.0384C4.93639 13.6538 5.26562 14.4886 5.26562 15.359H20.8906C20.8906 14.4886 21.2199 13.6538 21.8059 13.0384C22.392 12.4229 23.1868 12.0771 24.0156 12.0771V5.51323C23.1868 5.51323 22.392 5.16746 21.8059 4.55198C21.2199 3.93649 20.8906 3.10172 20.8906 2.2313H5.26562Z" fill="#ffffff"/>
</svg>
