<svg width="35" height="29" viewBox="0 0 35 29" fill="none" xmlns="http://www.w3.org/2000/svg">
<path d="M28 12.6875V16.3125H35V12.6875H28ZM24.5 24.6681C26.18 25.955 28.3675 27.6588 30.1 29C30.8 28.0394 31.5 27.0606 32.2 26.1C30.4675 24.7588 28.28 23.055 26.6 21.75C25.9 22.7288 25.2 23.7075 24.5 24.6681ZM32.2 2.9C31.5 1.93938 30.8 0.960625 30.1 0C28.3675 1.34125 26.18 3.045 24.5 4.35C25.2 5.31063 25.9 6.28938 26.6 7.25C28.28 5.945 30.4675 4.25938 32.2 2.9ZM3.5 9.0625C1.575 9.0625 0 10.6938 0 12.6875V16.3125C0 18.3063 1.575 19.9375 3.5 19.9375H5.25V27.1875H8.75V19.9375H10.5L19.25 25.375V3.625L10.5 9.0625H3.5ZM12.3025 12.1619L15.75 10.0231V18.9769L12.3025 16.8381L11.4625 16.3125H3.5V12.6875H11.4625L12.3025 12.1619ZM23.625 14.5C23.625 12.0894 22.61 9.91438 21 8.42813V20.5538C22.61 19.0856 23.625 16.9106 23.625 14.5Z" fill="white"/>
</svg>
